<svg width="257" height="20" viewBox="0 0 257 20" fill="none" xmlns="http://www.w3.org/2000/svg">
<path d="M157.95 18.6034V2.02043H171.908V5.23832H161.879V8.87077H171.552V11.7136H161.879V15.3658H171.908V18.6034H157.95ZM180.996 2.02043C187.432 2.02043 189.88 5.59367 189.88 10.3119C189.88 15.0302 187.432 18.6034 180.996 18.6034H173.376V2.02043H180.996ZM180.976 15.2868C184.194 15.2868 185.931 13.5101 185.931 10.3119C185.931 7.11377 184.194 5.33702 180.976 5.33702H177.344L177.304 15.2868H180.976ZM191.115 18.6034V2.02043H195.043V18.6034H191.115ZM212.766 2.02043V5.31728H206.548V18.6034H202.6V5.31728H196.401V2.02043H212.766ZM214.099 18.6034V2.02043H218.028V18.6034H214.099ZM228.289 19.1562C222.88 19.1562 219.188 15.5237 219.188 10.3119C219.188 5.10012 222.88 1.46767 228.289 1.46767C233.718 1.46767 237.41 5.10012 237.41 10.3119C237.41 15.5237 233.718 19.1562 228.289 19.1562ZM228.289 15.7409C231.25 15.7409 233.501 13.5693 233.501 10.3119C233.501 7.05454 231.25 4.88297 228.289 4.88297C225.347 4.88297 223.077 7.05454 223.077 10.3119C223.077 13.5693 225.347 15.7409 228.289 15.7409ZM238.565 18.6034V2.02043H243.125L250.824 13.1744H251.199V2.02043H255.049V18.6034H250.568L242.77 7.44938H242.414V18.6034H238.565Z" fill="#7C3AED"/>
<path fill-rule="evenodd" clip-rule="evenodd" d="M45.2498 9.20983C45.1946 9.41763 44.9924 9.49989 44.8216 9.45443C44.7124 9.42629 44.6161 9.34403 44.5804 9.20983L42.6092 1.78081C42.5573 1.58383 42.4123 1.42798 42.2296 1.35871C42.1604 1.33273 42.0847 1.31758 42.0068 1.31758H35.6626C35.3188 1.31758 35.0398 1.59898 35.0398 1.941V10.8809C35.0398 11.2662 34.5013 11.3615 34.3683 10.9978L30.9934 1.72886C30.962 1.64228 30.9134 1.56435 30.8517 1.50374C30.7771 1.42798 30.6841 1.3717 30.5814 1.34139C30.5263 1.32624 30.4679 1.31758 30.4084 1.31758H22.9731C22.7103 1.31758 22.4768 1.48209 22.387 1.72886L18.8662 11.4351C18.7948 11.6299 18.6066 11.6927 18.4477 11.6494C18.3103 11.6126 18.1946 11.4957 18.1946 11.3138V9.12973C18.1946 8.78556 17.9157 8.50632 17.5718 8.50632H9.86075C9.72882 8.50632 9.60555 8.54745 9.50499 8.61672C9.34278 8.72928 9.2379 8.9176 9.2379 9.12973V10.7489C9.2379 11.0931 9.5158 11.3723 9.86075 11.3723H12.0115C12.2473 11.3723 12.4138 11.6039 12.2981 11.8117C11.5768 13.0975 9.95158 13.1451 9.45308 13.1451C8.39553 13.1451 7.4526 12.7512 6.80055 12.0477C6.21987 11.4221 5.86844 10.5541 5.86844 9.49989C5.86844 9.07778 5.92359 8.68598 6.02739 8.32666C6.11715 8.01711 6.24366 7.73138 6.4037 7.47379C7.03845 6.44776 8.19332 5.85898 9.62934 5.85898C10.1754 5.85898 10.6447 5.95855 11.0318 6.11873C11.2946 6.2248 11.5184 6.35684 11.7044 6.49971C11.7953 6.57114 11.8764 6.64474 11.9477 6.7205L12.057 6.84388C12.0894 6.88285 12.124 6.92181 12.1608 6.95644C12.2094 7.00407 12.2613 7.04736 12.3176 7.08199C12.4311 7.15559 12.5587 7.20105 12.6949 7.20105H17.4777C17.8529 7.20105 18.1449 6.86986 18.0638 6.50404C17.1782 2.49947 13.2886 0.772095 9.50499 0.772095C3.68413 0.772095 0 4.22035 0 9.49989C0 14.7773 3.89931 18.2255 8.97405 18.2255C11.4936 18.2255 13.36 17.3791 14.5592 16.1669C14.6186 16.1063 14.6976 16.0825 14.7722 16.0912C14.8036 16.0955 14.8349 16.1042 14.8641 16.1172C14.9474 16.1561 15.0101 16.2341 15.0101 16.338V17.0588C15.0101 17.4008 15.2891 17.6822 15.6329 17.6822H22.2562C22.5265 17.6822 22.7666 17.5047 22.8498 17.2471L23.2002 16.1475C23.2824 15.8899 23.5224 15.7124 23.7938 15.7124H29.5855C29.8569 15.7124 30.097 15.8899 30.1791 16.1475L30.5295 17.2471C30.6117 17.5047 30.8517 17.6822 31.1232 17.6822H40.0604C40.095 17.6822 40.1296 17.68 40.1632 17.6735C40.1978 17.667 40.2313 17.6584 40.2637 17.6476C40.3383 17.6216 40.4065 17.5826 40.4659 17.5328C40.5524 17.4592 40.6184 17.3618 40.6541 17.2493C40.6736 17.1887 40.6833 17.1259 40.6833 17.0588V13.4958C40.6833 13.3226 40.7903 13.2079 40.9212 13.1668C41.0877 13.1127 41.291 13.1776 41.3591 13.3876L42.6005 17.2493C42.6329 17.351 42.6903 17.4398 42.7649 17.509C42.8784 17.6173 43.0309 17.6822 43.1942 17.6822H46.6371C46.7593 17.6822 46.875 17.6476 46.9724 17.5848C47.0135 17.5588 47.0513 17.5285 47.0848 17.4939C47.1486 17.4246 47.1994 17.3423 47.2297 17.2493L48.4743 13.3876C48.5219 13.2382 48.6376 13.1624 48.7598 13.1495C48.9469 13.1278 49.1491 13.2534 49.1491 13.4936V17.0588C49.1491 17.4008 49.4281 17.6822 49.772 17.6822H54.1676C54.3309 17.6822 54.4801 17.6173 54.5915 17.5133C54.7137 17.4008 54.7905 17.2384 54.7905 17.0588V1.941C54.7905 1.59465 54.5115 1.31758 54.1676 1.31758H47.8234C47.6817 1.31758 47.5487 1.3652 47.4427 1.44746C47.3887 1.48859 47.3422 1.53837 47.3043 1.59682C47.286 1.62496 47.2697 1.6531 47.2568 1.6834L47.233 1.74185L47.2222 1.78081L45.2498 9.20983ZM25.3054 11.3561C25.0394 11.3561 24.8503 11.097 24.9311 10.8432L26.0797 7.23732C26.1525 7.00898 26.3644 6.85396 26.6037 6.85396H26.8078C27.0471 6.85396 27.259 7.00898 27.3318 7.23732L28.4804 10.8432C28.5612 11.097 28.3721 11.3561 28.1061 11.3561H25.3054Z" fill="#7C3AED"/>
<path d="M87.753 1.31758C87.8222 1.31758 87.886 1.34356 87.9346 1.38685C87.993 1.43664 88.0298 1.5124 88.0298 1.59682V17.4051C88.0298 17.5588 87.9054 17.6822 87.753 17.6822H87.5908C87.2469 17.6822 86.9679 17.4051 86.9679 17.0588V16.0977C86.9679 15.8466 86.5559 15.734 86.3948 15.931C85.1091 17.4874 82.5809 18.2407 78.7562 18.2277C75.0537 18.2147 72.6153 17.5198 71.3598 15.9159C71.2009 15.7145 70.7629 15.8228 70.7629 16.0804V17.0588C70.7629 17.2839 70.6462 17.4787 70.4688 17.5891C70.4148 17.6216 70.3553 17.6476 70.2915 17.6627L70.2093 17.68L70.1401 17.6822H56.2373C56.0491 17.6822 55.8804 17.5999 55.7658 17.4679C55.7453 17.4441 55.7269 17.4181 55.7096 17.39C55.6901 17.3597 55.6739 17.3272 55.6599 17.2926L55.6404 17.2384L55.6274 17.1865L55.6188 17.1345L55.6144 17.0588V1.941C55.6144 1.59898 55.8934 1.31758 56.2373 1.31758H69.9595C70.3034 1.31758 70.5824 1.59898 70.5824 1.941V5.39142C70.5824 5.73343 70.3034 6.01483 69.9595 6.01483H61.8732C61.6829 6.01483 61.5272 6.17068 61.5272 6.36117V7.26382C61.5272 7.3266 61.5434 7.38504 61.5716 7.43483C61.631 7.53873 61.7446 7.61016 61.8732 7.61016H68.3937C68.7376 7.61016 69.0166 7.8894 69.0166 8.23358V10.7684C69.0166 11.1125 68.7376 11.3918 68.3937 11.3918H61.8732C61.804 11.3918 61.7402 11.4113 61.6862 11.4459C61.591 11.5087 61.5272 11.6169 61.5272 11.7381V12.6213C61.5272 12.8118 61.6829 12.9676 61.8732 12.9676H69.8968C70.1487 12.9676 70.351 12.7728 70.3488 12.5217C70.3477 12.4373 70.3704 12.3572 70.4104 12.2923C70.4883 12.1624 70.6299 12.0715 70.7911 12.0715H75.0515C75.3857 12.0715 75.6398 12.3529 75.7933 12.6494C75.9534 12.9568 76.2529 13.1971 76.7276 13.3681L76.8779 13.4157L77.0672 13.4677C77.2164 13.5045 77.3786 13.5369 77.5559 13.5629C77.7333 13.5889 77.9258 13.6105 78.1323 13.6257C78.3237 13.6387 78.5281 13.6473 78.7454 13.6516C80.667 13.669 81.4899 13.1624 81.4899 12.578C81.4899 12.2663 81.4098 11.7208 79.923 11.526L77.0899 11.0931C74.1519 10.658 70.9273 10.1796 70.9273 6.09276C70.9273 2.79819 73.6901 0.774259 78.806 0.774259C83.1984 0.774259 86.1526 2.12499 86.4608 6.25943C86.4867 6.60577 86.2045 6.88934 85.8574 6.88934H82.1451C81.8445 6.88934 81.6001 6.66638 81.4574 6.40013C81.1027 5.74209 80.2495 5.35245 78.6675 5.35245C77.0012 5.35245 76.3935 5.82001 76.3935 6.40446C76.3935 6.67721 76.5319 7.22269 77.6478 7.39586L79.3726 7.67077C79.538 7.69891 79.7067 7.72489 79.8776 7.7487L80.3252 7.81147L80.7113 7.86343C81.9592 8.02794 83.2816 8.20544 84.417 8.62105C84.8582 8.78339 85.2702 8.98037 85.64 9.22714C85.9136 9.41114 86.1634 9.62327 86.384 9.86787C86.5516 10.054 86.9571 9.93931 86.9571 9.69037V1.941C86.9571 1.87822 86.9668 1.81761 86.9852 1.75917C87.0274 1.62063 87.1171 1.50158 87.235 1.42148L87.2902 1.38901L87.3367 1.3652L87.4297 1.3349L87.474 1.3284L87.5248 1.31975L87.58 1.31758H87.753Z" fill="#7C3AED"/>
<path d="M88.8603 17.4051C88.8603 17.5588 88.9846 17.6822 89.1371 17.6822H89.6907C89.8432 17.6822 89.9676 17.5588 89.9676 17.4051V1.59682C89.9676 1.51456 89.9319 1.44097 89.8746 1.38901C89.8259 1.34356 89.761 1.31758 89.6907 1.31758H89.1371C89.056 1.31758 88.9835 1.35222 88.9327 1.4085C88.8873 1.45828 88.8603 1.52539 88.8603 1.59682V17.4051Z" fill="#7C3AED"/>
<path d="M91.0749 17.4051C91.0749 17.5588 91.1992 17.6822 91.3517 17.6822H91.9053C92.0578 17.6822 92.1822 17.5588 92.1822 17.4051V1.59682C92.1822 1.44313 92.0578 1.31758 91.9053 1.31758H91.3517C91.2673 1.31758 91.1916 1.35655 91.1408 1.41715C91.0997 1.46478 91.0749 1.52755 91.0749 1.59682V17.4051Z" fill="#7C3AED"/>
<path d="M93.5663 1.59682C93.5663 1.44313 93.6906 1.31758 93.8431 1.31758H94.3967C94.5492 1.31758 94.6736 1.44313 94.6736 1.59682V17.4051C94.6736 17.4765 94.6476 17.5415 94.6033 17.5891C94.5524 17.6454 94.4789 17.6822 94.3967 17.6822H93.8431C93.6906 17.6822 93.5663 17.5588 93.5663 17.4051V1.59682Z" fill="#7C3AED"/>
<path d="M96.6113 1.31758C96.4588 1.31758 96.3345 1.44313 96.3345 1.59682V17.4051C96.3345 17.5588 96.4588 17.6822 96.6113 17.6822H97.165C97.3174 17.6822 97.4418 17.5588 97.4418 17.4051V1.59682C97.4418 1.55353 97.4321 1.5124 97.4137 1.4756C97.3964 1.4388 97.3715 1.40633 97.3423 1.38252C97.3282 1.36953 97.312 1.36087 97.2947 1.35222L97.2655 1.33706C97.2342 1.32408 97.2007 1.31758 97.165 1.31758H96.6113Z" fill="#7C3AED"/>
<path d="M99.3795 1.59682C99.3795 1.44313 99.5039 1.31758 99.6564 1.31758H100.21C100.362 1.31758 100.487 1.44313 100.487 1.59682V17.4051C100.487 17.5588 100.362 17.6822 100.21 17.6822H99.6564C99.5039 17.6822 99.3795 17.5588 99.3795 17.4051V1.59682Z" fill="#7C3AED"/>
<path d="M102.978 1.31758C102.826 1.31758 102.701 1.44313 102.701 1.59682V17.4051C102.701 17.5588 102.826 17.6822 102.978 17.6822H103.197C103.541 17.6822 103.82 17.4051 103.82 17.0588V12.5975C103.82 12.4481 103.873 12.3096 103.961 12.2013C104.004 12.1494 104.055 12.1039 104.113 12.0671C104.163 12.0368 104.219 12.013 104.277 11.9979C104.33 11.9827 104.385 11.9741 104.442 11.9741H108.996C109.34 11.9741 109.619 12.2533 109.619 12.5975V17.0588C109.619 17.4051 109.898 17.6822 110.242 17.6822H114.941C115.148 17.6822 115.331 17.5826 115.445 17.4268C115.52 17.3229 115.564 17.1973 115.564 17.0588V1.941C115.564 1.59898 115.285 1.31758 114.941 1.31758H110.246C109.903 1.31758 109.624 1.59682 109.623 1.941L109.61 6.40663C109.609 6.60577 109.515 6.78327 109.369 6.89583C109.264 6.97809 109.131 7.02788 108.987 7.02788H104.432C104.354 7.02788 104.279 7.01489 104.21 6.98675C103.975 6.898 103.809 6.67071 103.809 6.40446V1.941C103.809 1.8674 103.796 1.79813 103.773 1.73319L103.759 1.69856L103.729 1.63795L103.695 1.58383C103.583 1.42365 103.397 1.31758 103.186 1.31758H102.978Z" fill="#7C3AED"/>
<path d="M116.974 17.6822C116.63 17.6822 116.351 17.4051 116.351 17.0588V1.941C116.351 1.85225 116.371 1.76782 116.404 1.6899C116.432 1.62712 116.471 1.56868 116.518 1.51889C116.631 1.39551 116.793 1.31758 116.974 1.31758H121.645C121.989 1.31758 122.268 1.59898 122.268 1.941V17.0588C122.268 17.4051 121.989 17.6822 121.645 17.6822H116.974Z" fill="#7C3AED"/>
<path d="M151.492 1.31758H123.732C123.389 1.31758 123.11 1.59898 123.11 1.941V17.0588C123.11 17.2947 123.238 17.4982 123.429 17.6043C123.478 17.6324 123.532 17.6519 123.589 17.6649C123.635 17.6757 123.683 17.6822 123.732 17.6822H128.404C128.549 17.6822 128.683 17.6346 128.789 17.5501C128.934 17.4354 129.027 17.2579 129.027 17.0588V12.7533C129.027 12.4091 129.306 12.1299 129.65 12.1299H137.223C137.378 12.1299 137.52 12.0736 137.629 11.9806C137.762 11.8658 137.846 11.6948 137.846 11.5065V8.52797C137.846 8.18379 137.567 7.90455 137.223 7.90455H129.639C129.295 7.90455 129.016 7.62532 129.016 7.28114V6.85038C129.016 6.69236 129.075 6.54733 129.173 6.43693C129.286 6.30922 129.453 6.22696 129.639 6.22696H139.715C139.89 6.22696 140.049 6.30056 140.162 6.41745C140.27 6.53001 140.337 6.6837 140.337 6.85038V17.0588C140.337 17.2341 140.409 17.3921 140.522 17.5047C140.635 17.6151 140.789 17.6822 140.96 17.6822H145.651C145.995 17.6822 146.274 17.4051 146.274 17.0588V6.85038C146.274 6.6902 146.336 6.543 146.437 6.43044C146.551 6.30706 146.715 6.22696 146.897 6.22696H151.492C151.835 6.22696 152.114 5.94989 152.114 5.60355V1.941C152.114 1.79597 152.064 1.65959 151.979 1.55569C151.865 1.41066 151.689 1.31758 151.492 1.31758Z" fill="#7C3AED"/>
</svg>
